<?xml version="1.0" encoding="UTF-8" standalone="no"?>
<!DOCTYPE svg PUBLIC "-//W3C//DTD SVG 1.1//EN"
 "http://www.w3.org/Graphics/SVG/1.1/DTD/svg11.dtd">
<!-- Generated by graphviz version 2.38.0 (20140413.2041)
 -->
<!-- Title: aspectDataDictionary Pages: 1 -->
<svg width="118pt" height="140pt"
 viewBox="0.00 0.00 118.00 140.00" xmlns="http://www.w3.org/2000/svg" xmlns:xlink="http://www.w3.org/1999/xlink">
<g id="graph0" class="graph" transform="scale(1 1) rotate(0) translate(4 136)">
<title>aspectDataDictionary</title>
<!-- Node3 -->
<g id="node1" class="node"><title>Node3</title>
<g id="a_node1"><a xlink:title=" ">
<polygon fill="#bfbfbf" stroke="black" points="0,-0.5 0,-19.5 110,-19.5 110,-0.5 0,-0.5"/>
<text text-anchor="middle" x="55" y="-7.5" font-family="Helvetica,sans-Serif" font-size="10.00">aspectDataDictionary</text>
</a>
</g>
</g>
<!-- Node4 -->
<g id="node2" class="node"><title>Node4</title>
<g id="a_node2"><a xlink:href="classaspect_data.html" target="_top" xlink:title=" ">
<polygon fill="none" stroke="black" points="22,-56.5 22,-75.5 88,-75.5 88,-56.5 22,-56.5"/>
<text text-anchor="middle" x="55" y="-63.5" font-family="Helvetica,sans-Serif" font-size="10.00">aspectData</text>
</a>
</g>
</g>
<!-- Node4&#45;&gt;Node3 -->
<g id="edge1" class="edge"><title>Node4&#45;&gt;Node3</title>
<path fill="none" stroke="midnightblue" d="M55,-45.8045C55,-36.9102 55,-26.7798 55,-19.7511"/>
<polygon fill="midnightblue" stroke="midnightblue" points="51.5001,-46.083 55,-56.083 58.5001,-46.083 51.5001,-46.083"/>
</g>
<!-- Node5 -->
<g id="node3" class="node"><title>Node5</title>
<g id="a_node3"><a xlink:href="classelement_data.html" target="_top" xlink:title=" ">
<polygon fill="none" stroke="black" points="19.5,-112.5 19.5,-131.5 90.5,-131.5 90.5,-112.5 19.5,-112.5"/>
<text text-anchor="middle" x="55" y="-119.5" font-family="Helvetica,sans-Serif" font-size="10.00">elementData</text>
</a>
</g>
</g>
<!-- Node5&#45;&gt;Node4 -->
<g id="edge2" class="edge"><title>Node5&#45;&gt;Node4</title>
<path fill="none" stroke="midnightblue" d="M55,-101.805C55,-92.9102 55,-82.7798 55,-75.7511"/>
<polygon fill="midnightblue" stroke="midnightblue" points="51.5001,-102.083 55,-112.083 58.5001,-102.083 51.5001,-102.083"/>
</g>
</g>
</svg>
