<?xml version="1.0" encoding="UTF-8" standalone="no"?>
<!DOCTYPE svg PUBLIC "-//W3C//DTD SVG 1.1//EN"
 "http://www.w3.org/Graphics/SVG/1.1/DTD/svg11.dtd">
<!-- Generated by graphviz version 2.38.0 (20140413.2041)
 -->
<!-- Title: engine Pages: 1 -->
<svg width="200pt" height="140pt"
 viewBox="0.00 0.00 200.00 140.00" xmlns="http://www.w3.org/2000/svg" xmlns:xlink="http://www.w3.org/1999/xlink">
<g id="graph0" class="graph" transform="scale(1 1) rotate(0) translate(4 136)">
<title>engine</title>
<!-- Node0 -->
<g id="node1" class="node"><title>Node0</title>
<g id="a_node1"><a xlink:title=" ">
<polygon fill="#bfbfbf" stroke="black" points="82.5,-56.5 82.5,-75.5 127.5,-75.5 127.5,-56.5 82.5,-56.5"/>
<text text-anchor="middle" x="105" y="-63.5" font-family="Helvetica,sans-Serif" font-size="10.00">engine</text>
</a>
</g>
</g>
<!-- Node2 -->
<g id="node3" class="node"><title>Node2</title>
<g id="a_node3"><a xlink:href="classcloud_request_engine.html" target="_top" xlink:title=" ">
<polygon fill="none" stroke="black" points="0,-0.5 0,-19.5 106,-19.5 106,-0.5 0,-0.5"/>
<text text-anchor="middle" x="53" y="-7.5" font-family="Helvetica,sans-Serif" font-size="10.00">cloudRequestEngine</text>
</a>
</g>
</g>
<!-- Node0&#45;&gt;Node2 -->
<g id="edge2" class="edge"><title>Node0&#45;&gt;Node2</title>
<path fill="none" stroke="midnightblue" d="M89.3206,-48.7175C80.1553,-39.1997 68.9474,-27.5608 61.427,-19.7511"/>
<polygon fill="midnightblue" stroke="midnightblue" points="86.9557,-51.3075 96.4133,-56.083 91.9979,-46.452 86.9557,-51.3075"/>
</g>
<!-- Node3 -->
<g id="node4" class="node"><title>Node3</title>
<g id="a_node4"><a xlink:href="classshare_usage.html" target="_top" xlink:title=" ">
<polygon fill="none" stroke="black" points="124,-0.5 124,-19.5 192,-19.5 192,-0.5 124,-0.5"/>
<text text-anchor="middle" x="158" y="-7.5" font-family="Helvetica,sans-Serif" font-size="10.00">shareUsage</text>
</a>
</g>
</g>
<!-- Node0&#45;&gt;Node3 -->
<g id="edge3" class="edge"><title>Node0&#45;&gt;Node3</title>
<path fill="none" stroke="midnightblue" d="M120.981,-48.7175C130.322,-39.1997 141.746,-27.5608 149.411,-19.7511"/>
<polygon fill="midnightblue" stroke="midnightblue" points="118.259,-46.4945 113.752,-56.083 123.254,-51.3978 118.259,-46.4945"/>
</g>
<!-- Node1 -->
<g id="node2" class="node"><title>Node1</title>
<g id="a_node2"><a xlink:href="classflow_element.html" target="_top" xlink:title=" ">
<polygon fill="none" stroke="black" points="70.5,-112.5 70.5,-131.5 139.5,-131.5 139.5,-112.5 70.5,-112.5"/>
<text text-anchor="middle" x="105" y="-119.5" font-family="Helvetica,sans-Serif" font-size="10.00">flowElement</text>
</a>
</g>
</g>
<!-- Node1&#45;&gt;Node0 -->
<g id="edge1" class="edge"><title>Node1&#45;&gt;Node0</title>
<path fill="none" stroke="midnightblue" d="M105,-101.805C105,-92.9102 105,-82.7798 105,-75.7511"/>
<polygon fill="midnightblue" stroke="midnightblue" points="101.5,-102.083 105,-112.083 108.5,-102.083 101.5,-102.083"/>
</g>
</g>
</svg>
