<?xml version="1.0" encoding="UTF-8" standalone="no"?>
<!DOCTYPE svg PUBLIC "-//W3C//DTD SVG 1.1//EN"
 "http://www.w3.org/Graphics/SVG/1.1/DTD/svg11.dtd">
<!-- Generated by graphviz version 2.38.0 (20140413.2041)
 -->
<!-- Title: flowElement Pages: 1 -->
<svg width="320pt" height="140pt"
 viewBox="0.00 0.00 320.00 140.00" xmlns="http://www.w3.org/2000/svg" xmlns:xlink="http://www.w3.org/1999/xlink">
<g id="graph0" class="graph" transform="scale(1 1) rotate(0) translate(4 136)">
<title>flowElement</title>
<!-- Node0 -->
<g id="node1" class="node"><title>Node0</title>
<g id="a_node1"><a xlink:title=" ">
<polygon fill="#bfbfbf" stroke="black" points="139.5,-112.5 139.5,-131.5 208.5,-131.5 208.5,-112.5 139.5,-112.5"/>
<text text-anchor="middle" x="174" y="-119.5" font-family="Helvetica,sans-Serif" font-size="10.00">flowElement</text>
</a>
</g>
</g>
<!-- Node1 -->
<g id="node2" class="node"><title>Node1</title>
<g id="a_node2"><a xlink:href="classasync.html" target="_top" xlink:title=" ">
<polygon fill="none" stroke="black" points="21.5,-56.5 21.5,-75.5 64.5,-75.5 64.5,-56.5 21.5,-56.5"/>
<text text-anchor="middle" x="43" y="-63.5" font-family="Helvetica,sans-Serif" font-size="10.00">async</text>
</a>
</g>
</g>
<!-- Node0&#45;&gt;Node1 -->
<g id="edge1" class="edge"><title>Node0&#45;&gt;Node1</title>
<path fill="none" stroke="midnightblue" d="M143.683,-108.503C119.124,-98.3795 85.182,-84.388 63.6602,-75.5164"/>
<polygon fill="midnightblue" stroke="midnightblue" points="142.663,-111.868 153.243,-112.444 145.331,-105.397 142.663,-111.868"/>
</g>
<!-- Node2 -->
<g id="node3" class="node"><title>Node2</title>
<g id="a_node3"><a xlink:href="classengine.html" target="_top" xlink:title=" ">
<polygon fill="none" stroke="black" points="82.5,-56.5 82.5,-75.5 127.5,-75.5 127.5,-56.5 82.5,-56.5"/>
<text text-anchor="middle" x="105" y="-63.5" font-family="Helvetica,sans-Serif" font-size="10.00">engine</text>
</a>
</g>
</g>
<!-- Node0&#45;&gt;Node2 -->
<g id="edge2" class="edge"><title>Node0&#45;&gt;Node2</title>
<path fill="none" stroke="midnightblue" d="M154.962,-106.101C142.544,-96.3824 126.757,-84.0269 116.288,-75.8339"/>
<polygon fill="midnightblue" stroke="midnightblue" points="152.882,-108.917 162.914,-112.324 157.196,-103.405 152.882,-108.917"/>
</g>
<!-- Node5 -->
<g id="node6" class="node"><title>Node5</title>
<g id="a_node6"><a xlink:href="classnever_run.html" target="_top" xlink:title=" ">
<polygon fill="none" stroke="black" points="146,-56.5 146,-75.5 202,-75.5 202,-56.5 146,-56.5"/>
<text text-anchor="middle" x="174" y="-63.5" font-family="Helvetica,sans-Serif" font-size="10.00">neverRun</text>
</a>
</g>
</g>
<!-- Node0&#45;&gt;Node5 -->
<g id="edge5" class="edge"><title>Node0&#45;&gt;Node5</title>
<path fill="none" stroke="midnightblue" d="M174,-101.805C174,-92.9102 174,-82.7798 174,-75.7511"/>
<polygon fill="midnightblue" stroke="midnightblue" points="170.5,-102.083 174,-112.083 177.5,-102.083 170.5,-102.083"/>
</g>
<!-- Node6 -->
<g id="node7" class="node"><title>Node6</title>
<g id="a_node7"><a xlink:href="classstop.html" target="_top" xlink:title=" ">
<polygon fill="none" stroke="black" points="220.5,-56.5 220.5,-75.5 255.5,-75.5 255.5,-56.5 220.5,-56.5"/>
<text text-anchor="middle" x="238" y="-63.5" font-family="Helvetica,sans-Serif" font-size="10.00">stop</text>
</a>
</g>
</g>
<!-- Node0&#45;&gt;Node6 -->
<g id="edge6" class="edge"><title>Node0&#45;&gt;Node6</title>
<path fill="none" stroke="midnightblue" d="M191.991,-105.82C203.458,-96.1452 217.913,-83.9481 227.53,-75.8339"/>
<polygon fill="midnightblue" stroke="midnightblue" points="189.669,-103.2 184.283,-112.324 194.183,-108.55 189.669,-103.2"/>
</g>
<!-- Node7 -->
<g id="node8" class="node"><title>Node7</title>
<g id="a_node8"><a xlink:href="classsync.html" target="_top" xlink:title=" ">
<polygon fill="none" stroke="black" points="274,-56.5 274,-75.5 312,-75.5 312,-56.5 274,-56.5"/>
<text text-anchor="middle" x="293" y="-63.5" font-family="Helvetica,sans-Serif" font-size="10.00">sync</text>
</a>
</g>
</g>
<!-- Node0&#45;&gt;Node7 -->
<g id="edge7" class="edge"><title>Node0&#45;&gt;Node7</title>
<path fill="none" stroke="midnightblue" d="M202.137,-108.232C224.396,-98.1312 254.856,-84.3091 274.232,-75.5164"/>
<polygon fill="midnightblue" stroke="midnightblue" points="200.516,-105.124 192.856,-112.444 203.409,-111.498 200.516,-105.124"/>
</g>
<!-- Node3 -->
<g id="node4" class="node"><title>Node3</title>
<g id="a_node4"><a xlink:href="classcloud_request_engine.html" target="_top" xlink:title=" ">
<polygon fill="none" stroke="black" points="0,-0.5 0,-19.5 106,-19.5 106,-0.5 0,-0.5"/>
<text text-anchor="middle" x="53" y="-7.5" font-family="Helvetica,sans-Serif" font-size="10.00">cloudRequestEngine</text>
</a>
</g>
</g>
<!-- Node2&#45;&gt;Node3 -->
<g id="edge3" class="edge"><title>Node2&#45;&gt;Node3</title>
<path fill="none" stroke="midnightblue" d="M89.3206,-48.7175C80.1553,-39.1997 68.9474,-27.5608 61.427,-19.7511"/>
<polygon fill="midnightblue" stroke="midnightblue" points="86.9557,-51.3075 96.4133,-56.083 91.9979,-46.452 86.9557,-51.3075"/>
</g>
<!-- Node4 -->
<g id="node5" class="node"><title>Node4</title>
<g id="a_node5"><a xlink:href="classshare_usage.html" target="_top" xlink:title=" ">
<polygon fill="none" stroke="black" points="124,-0.5 124,-19.5 192,-19.5 192,-0.5 124,-0.5"/>
<text text-anchor="middle" x="158" y="-7.5" font-family="Helvetica,sans-Serif" font-size="10.00">shareUsage</text>
</a>
</g>
</g>
<!-- Node2&#45;&gt;Node4 -->
<g id="edge4" class="edge"><title>Node2&#45;&gt;Node4</title>
<path fill="none" stroke="midnightblue" d="M120.981,-48.7175C130.322,-39.1997 141.746,-27.5608 149.411,-19.7511"/>
<polygon fill="midnightblue" stroke="midnightblue" points="118.259,-46.4945 113.752,-56.083 123.254,-51.3978 118.259,-46.4945"/>
</g>
</g>
</svg>
