<?xml version="1.0" encoding="UTF-8" standalone="no"?>
<!DOCTYPE svg PUBLIC "-//W3C//DTD SVG 1.1//EN"
 "http://www.w3.org/Graphics/SVG/1.1/DTD/svg11.dtd">
<!-- Generated by graphviz version 2.38.0 (20140413.2041)
 -->
<!-- Title: shareUsage Pages: 1 -->
<svg width="77pt" height="140pt"
 viewBox="0.00 0.00 77.00 140.00" xmlns="http://www.w3.org/2000/svg" xmlns:xlink="http://www.w3.org/1999/xlink">
<g id="graph0" class="graph" transform="scale(1 1) rotate(0) translate(4 136)">
<title>shareUsage</title>
<!-- Node0 -->
<g id="node1" class="node"><title>Node0</title>
<g id="a_node1"><a xlink:title=" ">
<polygon fill="#bfbfbf" stroke="black" points="0.5,-0.5 0.5,-19.5 68.5,-19.5 68.5,-0.5 0.5,-0.5"/>
<text text-anchor="middle" x="34.5" y="-7.5" font-family="Helvetica,sans-Serif" font-size="10.00">shareUsage</text>
</a>
</g>
</g>
<!-- Node1 -->
<g id="node2" class="node"><title>Node1</title>
<g id="a_node2"><a xlink:href="classengine.html" target="_top" xlink:title=" ">
<polygon fill="none" stroke="black" points="12,-56.5 12,-75.5 57,-75.5 57,-56.5 12,-56.5"/>
<text text-anchor="middle" x="34.5" y="-63.5" font-family="Helvetica,sans-Serif" font-size="10.00">engine</text>
</a>
</g>
</g>
<!-- Node1&#45;&gt;Node0 -->
<g id="edge1" class="edge"><title>Node1&#45;&gt;Node0</title>
<path fill="none" stroke="midnightblue" d="M34.5,-45.8045C34.5,-36.9102 34.5,-26.7798 34.5,-19.7511"/>
<polygon fill="midnightblue" stroke="midnightblue" points="31.0001,-46.083 34.5,-56.083 38.0001,-46.083 31.0001,-46.083"/>
</g>
<!-- Node2 -->
<g id="node3" class="node"><title>Node2</title>
<g id="a_node3"><a xlink:href="classflow_element.html" target="_top" xlink:title=" ">
<polygon fill="none" stroke="black" points="0,-112.5 0,-131.5 69,-131.5 69,-112.5 0,-112.5"/>
<text text-anchor="middle" x="34.5" y="-119.5" font-family="Helvetica,sans-Serif" font-size="10.00">flowElement</text>
</a>
</g>
</g>
<!-- Node2&#45;&gt;Node1 -->
<g id="edge2" class="edge"><title>Node2&#45;&gt;Node1</title>
<path fill="none" stroke="midnightblue" d="M34.5,-101.805C34.5,-92.9102 34.5,-82.7798 34.5,-75.7511"/>
<polygon fill="midnightblue" stroke="midnightblue" points="31.0001,-102.083 34.5,-112.083 38.0001,-102.083 31.0001,-102.083"/>
</g>
</g>
</svg>
