<?xml version="1.0" encoding="UTF-8" standalone="no"?>
<!DOCTYPE svg PUBLIC "-//W3C//DTD SVG 1.1//EN"
 "http://www.w3.org/Graphics/SVG/1.1/DTD/svg11.dtd">
<!-- Generated by graphviz version 2.38.0 (20140413.2041)
 -->
<!-- Title: dataKeyedCache Pages: 1 -->
<svg width="163pt" height="140pt"
 viewBox="0.00 0.00 162.50 140.00" xmlns="http://www.w3.org/2000/svg" xmlns:xlink="http://www.w3.org/1999/xlink">
<g id="graph0" class="graph" transform="scale(1 1) rotate(0) translate(4 136)">
<title>dataKeyedCache</title>
<!-- Node0 -->
<g id="node1" class="node"><title>Node0</title>
<g id="a_node1"><a xlink:title=" ">
<polygon fill="#bfbfbf" stroke="black" points="21.5,-112.5 21.5,-131.5 112.5,-131.5 112.5,-112.5 21.5,-112.5"/>
<text text-anchor="middle" x="67" y="-119.5" font-family="Helvetica,sans-Serif" font-size="10.00">dataKeyedCache</text>
</a>
</g>
</g>
<!-- Node1 -->
<g id="node2" class="node"><title>Node1</title>
<g id="a_node2"><a xlink:href="class_l_r_ucache.html" target="_top" xlink:title=" ">
<polygon fill="none" stroke="black" points="0,-56.5 0,-75.5 62,-75.5 62,-56.5 0,-56.5"/>
<text text-anchor="middle" x="31" y="-63.5" font-family="Helvetica,sans-Serif" font-size="10.00">LRUcache</text>
</a>
</g>
</g>
<!-- Node0&#45;&gt;Node1 -->
<g id="edge1" class="edge"><title>Node0&#45;&gt;Node1</title>
<path fill="none" stroke="midnightblue" d="M55.3771,-103.566C49.1832,-94.2747 41.8323,-83.2484 36.8341,-75.7511"/>
<polygon fill="midnightblue" stroke="midnightblue" points="52.5961,-105.704 61.0553,-112.083 58.4205,-101.821 52.5961,-105.704"/>
</g>
<!-- Node2 -->
<g id="node3" class="node"><title>Node2</title>
<g id="a_node3"><a xlink:href="classtracker.html" target="_top" xlink:title=" ">
<polygon fill="none" stroke="black" points="80.5,-56.5 80.5,-75.5 127.5,-75.5 127.5,-56.5 80.5,-56.5"/>
<text text-anchor="middle" x="104" y="-63.5" font-family="Helvetica,sans-Serif" font-size="10.00">tracker</text>
</a>
</g>
</g>
<!-- Node0&#45;&gt;Node2 -->
<g id="edge2" class="edge"><title>Node0&#45;&gt;Node2</title>
<path fill="none" stroke="midnightblue" d="M78.9458,-103.566C85.3117,-94.2747 92.8668,-83.2484 98.0039,-75.7511"/>
<polygon fill="midnightblue" stroke="midnightblue" points="75.8749,-101.855 73.1098,-112.083 81.6494,-105.812 75.8749,-101.855"/>
</g>
<!-- Node3 -->
<g id="node4" class="node"><title>Node3</title>
<g id="a_node4"><a xlink:href="classshare_usage_tracker.html" target="_top" xlink:title=" ">
<polygon fill="none" stroke="black" points="53.5,-0.5 53.5,-19.5 154.5,-19.5 154.5,-0.5 53.5,-0.5"/>
<text text-anchor="middle" x="104" y="-7.5" font-family="Helvetica,sans-Serif" font-size="10.00">shareUsageTracker</text>
</a>
</g>
</g>
<!-- Node2&#45;&gt;Node3 -->
<g id="edge3" class="edge"><title>Node2&#45;&gt;Node3</title>
<path fill="none" stroke="midnightblue" d="M104,-45.8045C104,-36.9102 104,-26.7798 104,-19.7511"/>
<polygon fill="midnightblue" stroke="midnightblue" points="100.5,-46.083 104,-56.083 107.5,-46.083 100.5,-46.083"/>
</g>
</g>
</svg>
